<svg xmlns="http://www.w3.org/2000/svg" xmlns:xlink="http://www.w3.org/1999/xlink" version="1.1" width="256" height="256" viewBox="0 0 256 256" xml:space="preserve">

<defs>
</defs>
<g style="stroke: none; stroke-width: 0; stroke-dasharray: none; stroke-linecap: butt; stroke-linejoin: miter; stroke-miterlimit: 10; fill: none; fill-rule: nonzero; opacity: 1;" transform="translate(1.4065934065934016 1.4065934065934016) scale(2.81 2.81)" >
	<circle cx="45" cy="45" r="45" style="stroke: none; stroke-width: 1; stroke-dasharray: none; stroke-linecap: butt; stroke-linejoin: miter; stroke-miterlimit: 10; fill: rgb(32,143,232); fill-rule: nonzero; opacity: 1;" transform="  matrix(1 0 0 1 0 0) "/>
	<path d="M 75.162 46.112 c 0.018 -0.027 0.029 -0.057 0.046 -0.084 c 0.051 -0.084 0.1 -0.168 0.138 -0.259 c 0.016 -0.038 0.023 -0.079 0.037 -0.118 c 0.029 -0.084 0.06 -0.166 0.077 -0.255 c 0.026 -0.129 0.04 -0.262 0.04 -0.395 s -0.014 -0.266 -0.04 -0.395 c -0.018 -0.088 -0.049 -0.171 -0.077 -0.255 c -0.014 -0.039 -0.021 -0.08 -0.037 -0.118 c -0.038 -0.091 -0.088 -0.176 -0.138 -0.259 c -0.016 -0.027 -0.028 -0.058 -0.046 -0.084 c -0.073 -0.109 -0.156 -0.211 -0.249 -0.303 l -9.938 -9.938 c -0.781 -0.781 -2.047 -0.781 -2.828 0 c -0.781 0.781 -0.781 2.047 0 2.828 L 68.672 43 H 47 V 21.328 l 6.525 6.525 c 0.391 0.391 0.902 0.586 1.414 0.586 s 1.023 -0.195 1.414 -0.586 c 0.781 -0.781 0.781 -2.047 0 -2.828 l -9.938 -9.938 c -0.093 -0.094 -0.196 -0.177 -0.307 -0.251 c -0.047 -0.031 -0.097 -0.052 -0.146 -0.079 c -0.065 -0.036 -0.129 -0.076 -0.199 -0.105 c -0.064 -0.026 -0.13 -0.041 -0.195 -0.061 c -0.059 -0.018 -0.116 -0.041 -0.178 -0.053 c -0.127 -0.025 -0.255 -0.038 -0.384 -0.039 c -0.002 0 -0.005 -0.001 -0.007 -0.001 c 0 0 0 0 0 0 c -0.131 0 -0.263 0.014 -0.392 0.04 c -0.057 0.011 -0.109 0.033 -0.164 0.048 c -0.07 0.02 -0.142 0.037 -0.21 0.065 c -0.064 0.027 -0.123 0.064 -0.183 0.097 c -0.054 0.029 -0.109 0.053 -0.161 0.087 c -0.11 0.074 -0.213 0.157 -0.306 0.25 l -9.938 9.938 c -0.781 0.781 -0.781 2.047 0 2.828 c 0.78 0.781 2.048 0.781 2.828 0 L 43 21.328 V 43 H 21.328 l 6.525 -6.525 c 0.781 -0.781 0.781 -2.047 0 -2.828 c -0.78 -0.781 -2.048 -0.781 -2.828 0 l -9.938 9.938 c -0.093 0.093 -0.177 0.196 -0.251 0.306 c -0.033 0.049 -0.055 0.102 -0.083 0.153 c -0.035 0.063 -0.073 0.124 -0.101 0.192 c -0.027 0.066 -0.043 0.134 -0.063 0.202 c -0.017 0.057 -0.039 0.112 -0.051 0.171 c -0.051 0.259 -0.051 0.525 0 0.783 c 0.012 0.059 0.034 0.114 0.051 0.171 c 0.02 0.068 0.036 0.136 0.063 0.202 c 0.028 0.067 0.066 0.128 0.101 0.192 c 0.028 0.051 0.05 0.104 0.083 0.153 c 0.074 0.11 0.157 0.213 0.251 0.306 l 9.938 9.938 c 0.39 0.391 0.902 0.586 1.414 0.586 s 1.024 -0.195 1.414 -0.586 c 0.781 -0.781 0.781 -2.047 0 -2.828 L 21.328 47 H 43 v 21.672 l -6.525 -6.525 c -0.78 -0.781 -2.048 -0.781 -2.828 0 c -0.781 0.781 -0.781 2.047 0 2.828 l 9.938 9.938 c 0.092 0.093 0.194 0.176 0.303 0.249 c 0.027 0.018 0.057 0.029 0.084 0.046 c 0.084 0.051 0.168 0.1 0.259 0.138 c 0.038 0.016 0.079 0.023 0.118 0.037 c 0.084 0.029 0.166 0.06 0.255 0.077 c 0.129 0.026 0.262 0.04 0.395 0.04 s 0.266 -0.014 0.395 -0.04 c 0.088 -0.018 0.171 -0.049 0.255 -0.077 c 0.039 -0.014 0.08 -0.021 0.118 -0.037 c 0.091 -0.038 0.176 -0.088 0.259 -0.138 c 0.027 -0.016 0.058 -0.028 0.084 -0.046 c 0.109 -0.073 0.211 -0.156 0.303 -0.249 l 9.938 -9.938 c 0.781 -0.781 0.781 -2.047 0 -2.828 s -2.047 -0.781 -2.828 0 L 47 68.672 V 47 h 21.672 l -6.525 6.525 c -0.781 0.781 -0.781 2.047 0 2.828 c 0.391 0.391 0.902 0.586 1.414 0.586 s 1.023 -0.195 1.414 -0.586 l 9.938 -9.938 C 75.005 46.323 75.089 46.221 75.162 46.112 z" style="stroke: none; stroke-width: 1; stroke-dasharray: none; stroke-linecap: butt; stroke-linejoin: miter; stroke-miterlimit: 10; fill: rgb(255,255,255); fill-rule: nonzero; opacity: 1;" transform=" matrix(1 0 0 1 0 0) " stroke-linecap="round" />
</g>
</svg>